<svg id="Layer_1" data-name="Layer 1" xmlns="http://www.w3.org/2000/svg" viewBox="0 0 90 112.6"><defs><style>.cls-1{font-size:16px;font-family:OperatorMonoSSmNerdFontC-Book, OperatorMonoSSm Nerd Font;}.cls-2{letter-spacing:-0.13em;}.cls-3{letter-spacing:-0.13em;}.cls-4{letter-spacing:-0.13em;}</style></defs><title>pipenv</title><path d="M83,21.48A12.15,12.15,0,0,0,71.56,5,20.49,20.49,0,0,0,58.82,9.41L50,5,41.18,9.41A20.48,20.48,0,0,0,28.44,5,12.15,12.15,0,0,0,17,21.48l-12,6v45L50,95,95,72.5v-45ZM72.57,36.69,57.94,29.38H71.56a12.13,12.13,0,0,0,8.21-3.2l6.93,3.47ZM41.82,15.38c2.08,2.74,3.77,5.83,5.6,8.73L35.89,18.35Zm16.36,0,5.93,3L52.58,24.11C54.41,21.21,56.1,18.12,58.18,15.38Zm17.87,8.94a8.38,8.38,0,0,1-4.49,1.31H57.94l10.37-5.18ZM31.69,20.44l10.36,5.18H28.44a8.38,8.38,0,0,1-4.49-1.31Zm-3.25,8.93H42.06L27.43,36.69l-14.14-7,6.93-3.47A12.12,12.12,0,0,0,28.44,29.38ZM48.13,51.19V87.77L29.38,78.4V41.84Zm3.75,0,18.75-9.35V78.4L51.88,87.77ZM50,47.94,31.63,38.78,45,32.09l-2.39,6,3.48,1.39L50,29.74l3.88,9.71,3.48-1.39-2.39-6,13.39,6.69ZM71.56,8.75a8.43,8.43,0,0,1,8,11l-17-8.48A16.79,16.79,0,0,1,71.56,8.75ZM54.78,13.68c-1.71,2.41-3.2,5-4.78,7.5-1.58-2.5-3.07-5.09-4.78-7.5L50,11.29ZM20,17.19a8.45,8.45,0,0,1,8.44-8.44,16.79,16.79,0,0,1,8.94,2.56l-17,8.48A8.37,8.37,0,0,1,20,17.19ZM10.63,32.5l15,7.48V76.52l-15-7.5Zm63.75,44V40l15-7.48V69Z" transform="translate(-5 -5)"/><text class="cls-1" transform="translate(7 107.5)"><tspan class="cls-2">$</tspan><tspan class="cls-3" x="7.94" y="0"> </tspan><tspan class="cls-4" x="15.82" y="0">p</tspan><tspan x="23.76" y="0">ipenv</tspan></text></svg>