<?xml version="1.0" encoding="utf-8"?>
<!-- Generator: Adobe Illustrator 21.0.0, SVG Export Plug-In . SVG Version: 6.00 Build 0)  -->
<svg version="1.1" id="Layer_1" xmlns="http://www.w3.org/2000/svg" xmlns:xlink="http://www.w3.org/1999/xlink" x="0px" y="0px"
	 viewBox="0 0 90 112.6" style="enable-background:new 0 0 90 112.6;" xml:space="preserve">
<style type="text/css">
	.st0{enable-background:new    ;}
</style>
<title>pipenv</title>
<path d="M78,16.5c2.4-6.3-0.8-13.3-7-15.7C69.6,0.3,68.1,0,66.6,0c-4.6,0-9.1,1.5-12.7,4.4L45,0l-8.8,4.4C32.6,1.5,28.1,0,23.4,0
	c-6.7,0-12.2,5.4-12.2,12.1c0,1.5,0.3,3,0.8,4.4l-12,6v45L45,90l45-22.5v-45L78,16.5z M67.6,31.7l-14.6-7.3h13.6c3,0,6-1.1,8.2-3.2
	l6.9,3.5L67.6,31.7z M36.8,10.4c2.1,2.7,3.8,5.8,5.6,8.7l-11.5-5.8L36.8,10.4z M53.2,10.4l5.9,3l-11.5,5.7
	C49.4,16.2,51.1,13.1,53.2,10.4z M71.1,19.3c-1.3,0.9-2.9,1.3-4.5,1.3H52.9l10.4-5.2L71.1,19.3z M26.7,15.4L37,20.6H23.4
	c-1.6,0-3.1-0.5-4.5-1.3L26.7,15.4z M23.4,24.4h13.6l-14.6,7.3l-14.1-7l6.9-3.5C17.5,23.3,20.4,24.4,23.4,24.4L23.4,24.4z
	 M43.1,46.2v36.6l-18.8-9.4V36.8L43.1,46.2z M46.9,46.2l18.8-9.4v36.6l-18.8,9.4V46.2z M45,42.9l-18.4-9.2L40,27.1l-2.4,6l3.5,1.4
	l3.9-9.7l3.9,9.7l3.5-1.4l-2.4-6l13.4,6.7L45,42.9z M66.6,3.8c4.7,0,8.4,3.8,8.4,8.5c0,0.9-0.1,1.7-0.4,2.5l-17-8.5
	C60.3,4.6,63.4,3.7,66.6,3.8z M49.8,8.7c-1.7,2.4-3.2,5-4.8,7.5c-1.6-2.5-3.1-5.1-4.8-7.5L45,6.3L49.8,8.7z M15,12.2
	c0-4.7,3.8-8.4,8.4-8.4c3.2,0,6.3,0.9,8.9,2.6l-17,8.5C15.1,13.9,15,13.1,15,12.2z M5.6,27.5l15,7.5v36.5L5.6,64L5.6,27.5z
	 M69.4,71.5V35l15-7.5V64L69.4,71.5z"/>
<g class="st0">
	<path d="M10.1,109l0.4-1.9c-0.6,0-1.4-0.1-2.1-0.2l0.3-1.4c0.9,0.1,1.6,0.2,2.3,0.3l0.6-3.4c-1.4-0.8-2.8-1.7-2.8-2.9
		c0-1.2,1.1-2.3,3.7-2.4l0.4-2l1.3,0l-0.4,2c0.5,0,1.1,0.1,1.8,0.1l-0.2,1.4c-0.8-0.1-1.4-0.2-2-0.2l-0.6,3.2c1.4,0.8,2.8,1.8,2.8,3
		c0,1.2-1.1,2.3-3.7,2.5l-0.3,2H10.1z M11.9,101l0.5-2.8c-1.5,0-2.1,0.4-2.1,1C10.2,99.8,10.9,100.4,11.9,101z M12.3,102.8l-0.5,2.9
		c1.5-0.1,2.2-0.6,2.2-1.2C14,103.9,13.3,103.4,12.3,102.8z"/>
</g>
<g class="st0">
	<path d="M24.6,110.6v-3c0-4.2,0-6.9-0.1-8.7l1.3-0.1l0.1,0.9c0.6-0.6,1.5-1.1,2.6-1.1c1.9,0,3.2,1.6,3.2,4.2c0,3.1-2.2,5-4.8,5
		c-0.3,0-0.6,0-0.9-0.1v2.8L24.6,110.6z M30.3,103.1c0-2.2-1-3.3-2.4-3.3c-0.7,0-1.4,0.3-2,0.7c0,1.4,0.1,3.1,0.1,5.7
		c0.5,0.2,1,0.3,1.5,0.3C29,106.5,30.3,105.3,30.3,103.1z"/>
</g>
<g class="st0">
	<path d="M32.1,107.5v-1.1h3.3V100l-3.2-0.1l0.1-1h4.6v7.6h3.2l-0.1,1.1H32.1z M35.3,97.4l0.1-2.4h1.5l-0.2,2.4H35.3z"/>
	<path d="M42.5,110.6v-3c0-4.2,0-6.9-0.1-8.7l1.3-0.1l0.1,0.9c0.6-0.6,1.5-1.1,2.6-1.1c1.9,0,3.2,1.6,3.2,4.2c0,3.1-2.2,5-4.8,5
		c-0.3,0-0.6,0-0.9-0.1v2.8L42.5,110.6z M48.2,103.1c0-2.2-1-3.3-2.4-3.3c-0.7,0-1.4,0.3-2,0.7c0,1.4,0.1,3.1,0.1,5.7
		c0.5,0.2,1,0.3,1.5,0.3C47,106.5,48.2,105.3,48.2,103.1z"/>
	<path d="M52,103.3c0-2.7,1.9-4.7,4.1-4.7c2.4,0,3.6,1.9,3.3,4.8l-5.9,0.2c0.1,2,1.5,2.8,5.7,2.9l-0.2,1.2
		C53.5,107.7,52,106.1,52,103.3z M53.5,102.6l4.6-0.1c0-1.6-0.7-2.7-2.2-2.7C54.5,99.8,53.6,100.8,53.5,102.6z"/>
	<path d="M63.8,100.6c0,1.6,0.1,3.9,0.1,6.9h-1.5c0-3.8,0-6.6-0.1-8.7l1.3-0.1l0.1,1c0.7-0.6,1.7-1.2,2.9-1.2c1.6,0,2.6,0.9,2.6,3
		v5.9h-1.5v-5.4c0-1.7-0.7-2.3-1.7-2.3C65.2,99.8,64.5,100.1,63.8,100.6z"/>
	<path d="M78.4,98.8h1.5c-1,2.9-2.1,5.9-3.2,8.8h-1.8c-1.2-2.9-2.2-5.8-3.2-8.7l1.5-0.1c0.8,2.4,1.6,4.9,2.6,7.4h0.1
		C76.8,103.7,77.7,101.2,78.4,98.8z"/>
</g>
</svg>
